<?xml version="1.0" encoding="UTF-8"?>
<!DOCTYPE svg PUBLIC "-//W3C//DTD SVG 1.1//EN" "http://www.w3.org/Graphics/SVG/1.1/DTD/svg11.dtd">
<svg xmlns="http://www.w3.org/2000/svg" version="1.1" width="500px" height="500px" style="shape-rendering:geometricPrecision; text-rendering:geometricPrecision; image-rendering:optimizeQuality; fill-rule:evenodd; clip-rule:evenodd" xmlns:xlink="http://www.w3.org/1999/xlink">
<g><path style="opacity:1" fill="#feb501" d="M -0.5,-0.5 C 166.167,-0.5 332.833,-0.5 499.5,-0.5C 499.5,166.167 499.5,332.833 499.5,499.5C 332.833,499.5 166.167,499.5 -0.5,499.5C -0.5,332.833 -0.5,166.167 -0.5,-0.5 Z"/></g>
<g><path style="opacity:1" fill="#ffefe0" d="M 212.5,89.5 C 214.39,89.2965 215.89,89.9632 217,91.5C 221.927,98.1911 224.76,105.691 225.5,114C 223.662,122.342 221.329,130.509 218.5,138.5C 218.515,140.634 219.015,142.634 220,144.5C 223.446,148.548 227.446,151.882 232,154.5C 232.977,157.259 232.144,159.259 229.5,160.5C 221.504,157.003 215.671,151.337 212,143.5C 211.333,139.833 211.333,136.167 212,132.5C 214.725,127.049 216.892,121.383 218.5,115.5C 217.522,107.546 214.855,100.212 210.5,93.5C 210.752,91.9271 211.418,90.5938 212.5,89.5 Z"/></g>
<g><path style="opacity:1" fill="#ffefe2" d="M 193.5,92.5 C 196.642,92.7993 198.809,94.4659 200,97.5C 204.832,104.828 206.832,112.828 206,121.5C 204.393,126.988 202.393,132.322 200,137.5C 199.088,141.452 199.755,145.119 202,148.5C 205.667,151.5 209.333,154.5 213,157.5C 213.934,162.083 212.1,163.583 207.5,162C 200.522,158.357 195.689,152.857 193,145.5C 192.333,142.5 192.333,139.5 193,136.5C 196.032,130.105 198.199,123.438 199.5,116.5C 198.11,109.164 195.444,102.33 191.5,96C 191.978,94.6974 192.645,93.5307 193.5,92.5 Z"/></g>
<g><path style="opacity:1" fill="#ffefe2" d="M 173.5,98.5 C 176.642,98.7993 178.809,100.466 180,103.5C 184.678,110.522 186.678,118.189 186,126.5C 184.849,132.468 182.849,138.134 180,143.5C 179.088,147.452 179.755,151.119 182,154.5C 185.667,157.5 189.333,160.5 193,163.5C 193.934,168.083 192.1,169.583 187.5,168C 180.522,164.357 175.689,158.857 173,151.5C 172.333,148.5 172.333,145.5 173,142.5C 175.898,136.213 178.065,129.713 179.5,123C 179.287,119.358 178.453,115.858 177,112.5C 174.777,109.221 172.943,105.721 171.5,102C 171.978,100.697 172.645,99.5307 173.5,98.5 Z"/></g>
<g><path style="opacity:1" fill="#44170a" d="M 246.5,152.5 C 250.192,151.971 253.358,152.971 256,155.5C 256.494,162.324 253.328,164.824 246.5,163C 244.224,162.126 242.89,160.459 242.5,158C 243.65,156.019 244.984,154.186 246.5,152.5 Z"/></g>
<g><path style="opacity:1" fill="#fff0e7" d="M 332.5,232.5 C 332.5,234.167 332.5,235.833 332.5,237.5C 277.167,237.5 221.833,237.5 166.5,237.5C 166.5,234.5 166.5,231.5 166.5,228.5C 169.861,208.941 179.861,193.774 196.5,183C 233.229,161.8 269.563,162.466 305.5,185C 321.894,196.62 330.894,212.453 332.5,232.5 Z"/></g>
<g><path style="opacity:1" fill="#ffbb26" d="M 202.5,188.5 C 203.5,188.5 204.5,188.5 205.5,188.5C 201.991,192.516 198.158,196.516 194,200.5C 191.023,205.113 189.19,210.113 188.5,215.5C 187.5,215.5 186.5,215.5 185.5,215.5C 186.88,203.727 192.547,194.727 202.5,188.5 Z"/></g>
<g><path style="opacity:1" fill="#ffe1ab" d="M 166.5,228.5 C 166.5,231.5 166.5,234.5 166.5,237.5C 221.833,237.5 277.167,237.5 332.5,237.5C 332.5,235.833 332.5,234.167 332.5,232.5C 333.461,234.265 333.795,236.265 333.5,238.5C 277.5,238.5 221.5,238.5 165.5,238.5C 165.187,234.958 165.521,231.625 166.5,228.5 Z"/></g>
<g><path style="opacity:1" fill="#41140a" d="M 147.5,242.5 C 215.501,242.333 283.501,242.5 351.5,243C 356.738,246.274 357.904,250.774 355,256.5C 353.581,257.46 352.081,258.293 350.5,259C 283.167,259.667 215.833,259.667 148.5,259C 140.937,253.827 140.604,248.327 147.5,242.5 Z"/></g>
<g><path style="opacity:1" fill="#45180a" d="M 303.5,268.5 C 305.5,268.5 307.5,268.5 309.5,268.5C 308.372,273.219 307.038,277.886 305.5,282.5C 304.167,282.5 302.833,282.5 301.5,282.5C 302.26,277.85 302.926,273.183 303.5,268.5 Z"/></g>
<g><path style="opacity:1" fill="#42160a" d="M 160.5,268.5 C 161.822,268.33 162.989,268.663 164,269.5C 164.208,275.705 165.374,281.705 167.5,287.5C 173.976,282.858 180.309,278.025 186.5,273C 189.47,272.978 190.636,274.478 190,277.5C 184.647,282.354 179.147,287.021 173.5,291.5C 177.851,296.685 182.684,301.351 188,305.5C 189.167,309.667 187.667,311.167 183.5,310C 178.333,305.5 173.167,301 168,296.5C 167.667,300.5 167.333,304.5 167,308.5C 165.062,309.86 163.396,309.527 162,307.5C 159.734,294.523 159.234,281.523 160.5,268.5 Z"/></g>
<g><path style="opacity:1" fill="#44170a" d="M 248.5,271.5 C 252.382,272.211 254.882,274.544 256,278.5C 259.121,287.302 257.621,295.136 251.5,302C 246.709,304.199 241.709,304.866 236.5,304C 233.936,301.724 234.27,299.724 237.5,298C 248.462,299.261 252.962,294.428 251,283.5C 249.5,280.5 248,277.5 246.5,274.5C 247.193,273.482 247.859,272.482 248.5,271.5 Z"/></g>
<g><path style="opacity:1" fill="#421509" d="M 207.5,275.5 C 217.264,274.466 224.098,278.466 228,287.5C 229.564,298.278 225.064,305.111 214.5,308C 206.339,309.182 200.506,306.015 197,298.5C 194.653,288.004 198.153,280.337 207.5,275.5 Z"/></g>
<g><path style="opacity:1" fill="#43160a" d="M 274.5,275.5 C 291.94,275.755 298.106,284.088 293,300.5C 284.235,310.523 275.235,310.856 266,301.5C 261.134,290.247 263.968,281.58 274.5,275.5 Z"/></g>
<g><path style="opacity:1" fill="#43160a" d="M 320.5,275.5 C 325.599,275.175 330.599,275.675 335.5,277C 338.792,279.412 339.959,282.579 339,286.5C 338.275,287.059 337.442,287.392 336.5,287.5C 334.502,286.033 332.836,284.2 331.5,282C 328.833,281.333 326.167,281.333 323.5,282C 322.643,282.689 321.977,283.522 321.5,284.5C 327.542,288.944 333.708,293.277 340,297.5C 341.194,308.485 336.361,312.985 325.5,311C 322.302,310.152 319.469,308.652 317,306.5C 316.014,304.075 316.681,302.409 319,301.5C 322.355,303.263 325.855,304.596 329.5,305.5C 332.331,305.672 333.998,304.339 334.5,301.5C 333.252,299.541 331.585,298.041 329.5,297C 324.468,295.402 319.968,292.902 316,289.5C 314.578,286.97 314.245,284.303 315,281.5C 317.04,279.63 318.873,277.63 320.5,275.5 Z"/></g>
<g><path style="opacity:1" fill="#f8b001" d="M 209.5,281.5 C 215.324,281.477 219.491,284.144 222,289.5C 221.696,298.79 216.862,302.623 207.5,301C 202.294,297.312 201.128,292.479 204,286.5C 205.73,284.598 207.563,282.931 209.5,281.5 Z"/></g>
<g><path style="opacity:1" fill="#fab201" d="M 276.5,281.5 C 286.658,281.854 290.492,286.854 288,296.5C 282.557,302.644 276.89,302.977 271,297.5C 269.016,290.66 270.85,285.327 276.5,281.5 Z"/></g>
<g><path style="opacity:1" fill="#42160a" d="M 144.5,320.5 C 145.822,320.33 146.989,320.663 148,321.5C 148.208,327.705 149.374,333.705 151.5,339.5C 157.976,334.858 164.309,330.025 170.5,325C 173.47,324.978 174.636,326.478 174,329.5C 168.647,334.354 163.147,339.021 157.5,343.5C 161.851,348.685 166.684,353.351 172,357.5C 173.167,361.667 171.667,363.167 167.5,362C 162.333,357.5 157.167,353 152,348.5C 151.667,352.5 151.333,356.5 151,360.5C 149.062,361.86 147.396,361.527 146,359.5C 143.734,346.523 143.234,333.523 144.5,320.5 Z"/></g>
<g><path style="opacity:1" fill="#46180b" d="M 309.5,324.5 C 311.833,324.5 314.167,324.5 316.5,324.5C 316.859,326.766 316.192,328.599 314.5,330C 308.536,331.216 302.536,332.216 296.5,333C 295.556,335.719 295.223,338.552 295.5,341.5C 300.172,340.997 304.839,340.831 309.5,341C 312.326,343.522 311.993,345.522 308.5,347C 304.179,347.499 299.846,347.666 295.5,347.5C 295.071,351.257 295.737,354.757 297.5,358C 304.5,358.333 311.5,358.667 318.5,359C 319.935,361.267 319.602,363.267 317.5,365C 311.5,365.667 305.5,365.667 299.5,365C 294.895,364.285 291.729,361.785 290,357.5C 288.16,347.746 288.493,338.079 291,328.5C 292.648,327.283 294.481,326.45 296.5,326C 301.019,325.825 305.353,325.325 309.5,324.5 Z"/></g>
<g><path style="opacity:1" fill="#411409" d="M 279.5,324.5 C 280.822,324.33 281.989,324.663 283,325.5C 283.256,336.848 283.756,348.182 284.5,359.5C 285.091,363.92 283.424,365.253 279.5,363.5C 277.886,358.98 277.22,354.313 277.5,349.5C 271.839,349.093 266.172,348.76 260.5,348.5C 261.66,353.454 262.16,358.454 262,363.5C 259.546,365.013 257.879,364.346 257,361.5C 252.936,349.919 251.436,337.919 252.5,325.5C 254.167,325.5 255.833,325.5 257.5,325.5C 257.733,330.894 258.399,336.227 259.5,341.5C 265.479,342.298 271.479,342.965 277.5,343.5C 276.968,336.952 277.635,330.618 279.5,324.5 Z"/></g>
<g><path style="opacity:1" fill="#44170a" d="M 179.5,325.5 C 182.73,325.561 184.563,327.228 185,330.5C 186.26,342.813 186.593,355.147 186,367.5C 183.546,369.013 181.879,368.346 181,365.5C 179.937,353.517 179.103,341.517 178.5,329.5C 178.623,328.075 178.957,326.742 179.5,325.5 Z"/></g>
<g><path style="opacity:1" fill="#45180a" d="M 211.5,325.5 C 216.159,325.015 217.492,326.848 215.5,331C 212.945,332.444 210.279,333.611 207.5,334.5C 208.824,344.363 208.824,354.197 207.5,364C 203.63,365.137 201.797,363.637 202,359.5C 201.5,350.84 201.334,342.173 201.5,333.5C 198.482,333.665 195.482,333.498 192.5,333C 190.473,331.604 190.14,329.938 191.5,328C 197.167,327.667 202.833,327.333 208.5,327C 209.737,326.768 210.737,326.268 211.5,325.5 Z"/></g>
<g><path style="opacity:1" fill="#44170a" d="M 233.5,326.5 C 239.888,325.55 243.888,328.217 245.5,334.5C 242.887,339.915 240.554,339.748 238.5,334C 232.923,333.553 229.089,336.053 227,341.5C 226.209,345.926 226.543,350.259 228,354.5C 233.139,359.85 237.972,359.516 242.5,353.5C 244.045,352.548 245.712,352.215 247.5,352.5C 247.674,358.762 244.674,362.595 238.5,364C 226.382,364.723 220.049,358.89 219.5,346.5C 220.663,337.344 225.329,330.677 233.5,326.5 Z"/></g>
<g><path style="opacity:1" fill="#43160a" d="M 350.5,328.5 C 352.451,328.227 353.951,328.893 355,330.5C 356.314,340.138 356.648,349.804 356,359.5C 353.599,360.602 351.099,360.769 348.5,360C 343,355.833 337.5,351.667 332,347.5C 332.245,351.813 332.245,356.147 332,360.5C 330.951,361.517 329.784,361.684 328.5,361C 326.926,359.174 326.093,357.007 326,354.5C 324.857,348.176 324.19,341.842 324,335.5C 325.555,333.485 327.389,333.152 329.5,334.5C 335.171,341.335 341.671,347.335 349,352.5C 349.198,344.422 349.698,336.422 350.5,328.5 Z"/></g>
</svg>
